<?xml version="1.0" encoding="utf-8" standalone="no"?>
<!DOCTYPE svg PUBLIC "-//W3C//DTD SVG 1.1//EN"
  "http://www.w3.org/Graphics/SVG/1.1/DTD/svg11.dtd">
<!-- Created with matplotlib (https://matplotlib.org/) -->
<svg height="432pt" version="1.1" viewBox="0 0 360 432" width="360pt" xmlns="http://www.w3.org/2000/svg" xmlns:xlink="http://www.w3.org/1999/xlink">
 <defs>
  <style type="text/css">
*{stroke-linecap:butt;stroke-linejoin:round;}
  </style>
 </defs>
 <g id="figure_1">
  <g id="patch_1">
   <path d="M 0 432 
L 360 432 
L 360 0 
L 0 0 
z
" style="fill:#ffffff;"/>
  </g>
  <g id="axes_1">
   <g id="patch_2">
    <path d="M 45 378 
L 324 378 
L 324 51.84 
L 45 51.84 
z
" style="fill:#eaeaf2;"/>
   </g>
   <g id="matplotlib.axis_1">
    <g id="xtick_1">
     <g id="line2d_1"/>
     <g id="text_1">
      <!-- Pre -->
      <defs>
       <path d="M 61.421875 48.09375 
Q 61.421875 43.609375 59.9375 39.71875 
Q 58.453125 35.84375 55.5 32.984375 
Q 52.546875 30.125 48.09375 28.46875 
Q 43.65625 26.8125 37.75 26.8125 
L 17.53125 26.8125 
L 17.53125 0 
L 8.203125 0 
L 8.203125 68.796875 
L 37.15625 68.796875 
Q 43.265625 68.796875 47.796875 67.3125 
Q 52.34375 65.828125 55.375 63.109375 
Q 58.40625 60.40625 59.90625 56.5625 
Q 61.421875 52.734375 61.421875 48.09375 
z
M 52.046875 48 
Q 52.046875 54.546875 48.046875 57.9375 
Q 44.046875 61.328125 36.03125 61.328125 
L 17.53125 61.328125 
L 17.53125 34.1875 
L 36.421875 34.1875 
Q 44.484375 34.1875 48.265625 37.75 
Q 52.046875 41.3125 52.046875 48 
z
" id="LiberationSans-80"/>
       <path d="M 6.9375 0 
L 6.9375 40.53125 
Q 6.9375 42.1875 6.90625 43.921875 
Q 6.890625 45.65625 6.828125 47.265625 
Q 6.78125 48.875 6.734375 50.28125 
Q 6.6875 51.703125 6.640625 52.828125 
L 14.9375 52.828125 
Q 14.984375 51.703125 15.0625 50.265625 
Q 15.140625 48.828125 15.203125 47.3125 
Q 15.28125 45.796875 15.296875 44.40625 
Q 15.328125 43.015625 15.328125 42.046875 
L 15.53125 42.046875 
Q 16.453125 45.0625 17.5 47.28125 
Q 18.5625 49.515625 19.96875 50.953125 
Q 21.390625 52.390625 23.34375 53.09375 
Q 25.296875 53.8125 28.078125 53.8125 
Q 29.15625 53.8125 30.125 53.640625 
Q 31.109375 53.46875 31.640625 53.328125 
L 31.640625 45.265625 
Q 30.765625 45.515625 29.59375 45.625 
Q 28.421875 45.75 26.953125 45.75 
Q 23.921875 45.75 21.796875 44.375 
Q 19.671875 43.015625 18.328125 40.59375 
Q 17 38.1875 16.359375 34.84375 
Q 15.71875 31.5 15.71875 27.546875 
L 15.71875 0 
z
" id="LiberationSans-114"/>
       <path d="M 13.484375 24.5625 
Q 13.484375 20.40625 14.328125 16.90625 
Q 15.1875 13.421875 16.96875 10.90625 
Q 18.75 8.40625 21.53125 7 
Q 24.3125 5.609375 28.21875 5.609375 
Q 33.9375 5.609375 37.375 7.90625 
Q 40.828125 10.203125 42.046875 13.71875 
L 49.75 11.53125 
Q 48.921875 9.328125 47.4375 7.109375 
Q 45.953125 4.890625 43.453125 3.09375 
Q 40.96875 1.3125 37.234375 0.15625 
Q 33.5 -0.984375 28.21875 -0.984375 
Q 16.5 -0.984375 10.375 6 
Q 4.25 12.984375 4.25 26.765625 
Q 4.25 34.1875 6.09375 39.328125 
Q 7.953125 44.484375 11.171875 47.703125 
Q 14.40625 50.921875 18.703125 52.359375 
Q 23 53.8125 27.875 53.8125 
Q 34.515625 53.8125 38.984375 51.65625 
Q 43.453125 49.515625 46.15625 45.71875 
Q 48.875 41.9375 50.015625 36.8125 
Q 51.171875 31.6875 51.171875 25.734375 
L 51.171875 24.5625 
z
M 42.09375 31.296875 
Q 41.359375 39.65625 37.84375 43.484375 
Q 34.328125 47.3125 27.734375 47.3125 
Q 25.53125 47.3125 23.109375 46.609375 
Q 20.703125 45.90625 18.65625 44.09375 
Q 16.609375 42.28125 15.1875 39.171875 
Q 13.765625 36.078125 13.578125 31.296875 
z
" id="LiberationSans-101"/>
      </defs>
      <g style="fill:#262626;" transform="translate(105.413438 393.69625)scale(0.12 -0.12)">
       <use xlink:href="#LiberationSans-80"/>
       <use x="66.699219" xlink:href="#LiberationSans-114"/>
       <use x="100" xlink:href="#LiberationSans-101"/>
      </g>
     </g>
    </g>
    <g id="xtick_2">
     <g id="line2d_2"/>
     <g id="text_2">
      <!-- Pos -->
      <defs>
       <path d="M 51.421875 26.46875 
Q 51.421875 12.59375 45.3125 5.796875 
Q 39.203125 -0.984375 27.59375 -0.984375 
Q 22.078125 -0.984375 17.71875 0.671875 
Q 13.375 2.34375 10.375 5.765625 
Q 7.375 9.1875 5.78125 14.328125 
Q 4.203125 19.484375 4.203125 26.46875 
Q 4.203125 53.8125 27.875 53.8125 
Q 34.03125 53.8125 38.5 52.09375 
Q 42.96875 50.390625 45.828125 46.96875 
Q 48.6875 43.5625 50.046875 38.421875 
Q 51.421875 33.296875 51.421875 26.46875 
z
M 42.1875 26.46875 
Q 42.1875 32.625 41.234375 36.625 
Q 40.28125 40.625 38.453125 43.015625 
Q 36.625 45.40625 33.984375 46.359375 
Q 31.34375 47.3125 28.03125 47.3125 
Q 24.65625 47.3125 21.9375 46.3125 
Q 19.234375 45.3125 17.328125 42.890625 
Q 15.4375 40.484375 14.421875 36.46875 
Q 13.421875 32.46875 13.421875 26.46875 
Q 13.421875 20.3125 14.5 16.28125 
Q 15.578125 12.25 17.453125 9.859375 
Q 19.34375 7.46875 21.90625 6.484375 
Q 24.46875 5.515625 27.484375 5.515625 
Q 30.859375 5.515625 33.59375 6.46875 
Q 36.328125 7.421875 38.234375 9.8125 
Q 40.140625 12.203125 41.15625 16.25 
Q 42.1875 20.3125 42.1875 26.46875 
z
" id="LiberationSans-111"/>
       <path d="M 46.390625 14.59375 
Q 46.390625 10.890625 44.9375 7.984375 
Q 43.5 5.078125 40.765625 3.09375 
Q 38.03125 1.125 34.046875 0.0625 
Q 30.078125 -0.984375 24.953125 -0.984375 
Q 20.359375 -0.984375 16.671875 -0.265625 
Q 12.984375 0.4375 10.203125 2 
Q 7.421875 3.5625 5.53125 6.125 
Q 3.65625 8.6875 2.78125 12.40625 
L 10.546875 13.921875 
Q 11.671875 9.671875 15.1875 7.6875 
Q 18.703125 5.71875 24.953125 5.71875 
Q 27.78125 5.71875 30.140625 6.109375 
Q 32.515625 6.5 34.21875 7.453125 
Q 35.9375 8.40625 36.890625 9.984375 
Q 37.84375 11.578125 37.84375 13.921875 
Q 37.84375 16.3125 36.71875 17.84375 
Q 35.59375 19.390625 33.59375 20.40625 
Q 31.59375 21.4375 28.734375 22.1875 
Q 25.875 22.953125 22.46875 23.875 
Q 19.28125 24.703125 16.15625 25.734375 
Q 13.03125 26.765625 10.515625 28.4375 
Q 8.015625 30.125 6.453125 32.609375 
Q 4.890625 35.109375 4.890625 38.875 
Q 4.890625 46.09375 10.03125 49.875 
Q 15.1875 53.65625 25.046875 53.65625 
Q 33.796875 53.65625 38.9375 50.578125 
Q 44.09375 47.515625 45.453125 40.71875 
L 37.546875 39.75 
Q 37.109375 41.796875 35.9375 43.1875 
Q 34.765625 44.578125 33.109375 45.4375 
Q 31.453125 46.296875 29.375 46.65625 
Q 27.296875 47.015625 25.046875 47.015625 
Q 19.09375 47.015625 16.25 45.203125 
Q 13.421875 43.40625 13.421875 39.75 
Q 13.421875 37.59375 14.46875 36.203125 
Q 15.53125 34.8125 17.40625 33.859375 
Q 19.28125 32.90625 21.921875 32.203125 
Q 24.5625 31.5 27.734375 30.71875 
Q 29.828125 30.171875 32.03125 29.5625 
Q 34.234375 28.953125 36.296875 28.09375 
Q 38.375 27.25 40.203125 26.09375 
Q 42.046875 24.953125 43.40625 23.34375 
Q 44.78125 21.734375 45.578125 19.578125 
Q 46.390625 17.4375 46.390625 14.59375 
z
" id="LiberationSans-115"/>
      </defs>
      <g style="fill:#262626;" transform="translate(243.91125 393.69625)scale(0.12 -0.12)">
       <use xlink:href="#LiberationSans-80"/>
       <use x="66.699219" xlink:href="#LiberationSans-111"/>
       <use x="122.314453" xlink:href="#LiberationSans-115"/>
      </g>
     </g>
    </g>
    <g id="text_3">
     <!-- Label -->
     <defs>
      <path d="M 8.203125 0 
L 8.203125 68.796875 
L 17.53125 68.796875 
L 17.53125 7.625 
L 52.296875 7.625 
L 52.296875 0 
z
" id="LiberationSans-76"/>
      <path d="M 20.21875 -0.984375 
Q 12.25 -0.984375 8.25 3.21875 
Q 4.25 7.421875 4.25 14.75 
Q 4.25 19.96875 6.21875 23.3125 
Q 8.203125 26.65625 11.390625 28.5625 
Q 14.59375 30.46875 18.6875 31.203125 
Q 22.796875 31.9375 27.046875 32.03125 
L 38.921875 32.234375 
L 38.921875 35.109375 
Q 38.921875 38.375 38.234375 40.671875 
Q 37.546875 42.96875 36.125 44.375 
Q 34.71875 45.796875 32.59375 46.453125 
Q 30.46875 47.125 27.59375 47.125 
Q 25.046875 47.125 23 46.75 
Q 20.953125 46.390625 19.4375 45.4375 
Q 17.921875 44.484375 16.984375 42.84375 
Q 16.0625 41.21875 15.765625 38.71875 
L 6.59375 39.546875 
Q 7.078125 42.671875 8.4375 45.28125 
Q 9.8125 47.90625 12.328125 49.796875 
Q 14.84375 51.703125 18.625 52.75 
Q 22.40625 53.8125 27.78125 53.8125 
Q 37.75 53.8125 42.765625 49.234375 
Q 47.796875 44.671875 47.796875 36.03125 
L 47.796875 13.28125 
Q 47.796875 9.375 48.828125 7.390625 
Q 49.859375 5.421875 52.734375 5.421875 
Q 53.46875 5.421875 54.203125 5.515625 
Q 54.9375 5.609375 55.609375 5.765625 
L 55.609375 0.296875 
Q 53.953125 -0.09375 52.3125 -0.28125 
Q 50.6875 -0.484375 48.828125 -0.484375 
Q 46.34375 -0.484375 44.5625 0.171875 
Q 42.78125 0.828125 41.65625 2.171875 
Q 40.53125 3.515625 39.9375 5.484375 
Q 39.359375 7.46875 39.203125 10.109375 
L 38.921875 10.109375 
Q 37.5 7.5625 35.8125 5.515625 
Q 34.125 3.46875 31.875 2.03125 
Q 29.640625 0.59375 26.78125 -0.1875 
Q 23.921875 -0.984375 20.21875 -0.984375 
z
M 22.21875 5.609375 
Q 26.421875 5.609375 29.5625 7.140625 
Q 32.71875 8.6875 34.78125 11.078125 
Q 36.859375 13.484375 37.890625 16.3125 
Q 38.921875 19.140625 38.921875 21.734375 
L 38.921875 26.078125 
L 29.296875 25.875 
Q 26.078125 25.828125 23.171875 25.40625 
Q 20.265625 25 18.0625 23.78125 
Q 15.875 22.5625 14.578125 20.359375 
Q 13.28125 18.171875 13.28125 14.59375 
Q 13.28125 10.296875 15.59375 7.953125 
Q 17.921875 5.609375 22.21875 5.609375 
z
" id="LiberationSans-97"/>
      <path d="M 51.421875 26.65625 
Q 51.421875 -0.984375 31.984375 -0.984375 
Q 25.984375 -0.984375 22 1.1875 
Q 18.015625 3.375 15.53125 8.203125 
L 15.4375 8.203125 
Q 15.4375 6.9375 15.359375 5.5625 
Q 15.28125 4.203125 15.203125 3.03125 
Q 15.140625 1.859375 15.0625 1.03125 
Q 14.984375 0.203125 14.9375 0 
L 6.453125 0 
Q 6.5 0.4375 6.546875 1.484375 
Q 6.59375 2.546875 6.640625 4 
Q 6.6875 5.46875 6.703125 7.21875 
Q 6.734375 8.984375 6.734375 10.890625 
L 6.734375 72.46875 
L 15.53125 72.46875 
L 15.53125 51.8125 
Q 15.53125 50.34375 15.5 49 
Q 15.484375 47.65625 15.4375 46.625 
Q 15.375 45.40625 15.328125 44.34375 
L 15.53125 44.34375 
Q 17.96875 49.421875 22 51.609375 
Q 26.03125 53.8125 31.984375 53.8125 
Q 42 53.8125 46.703125 47.0625 
Q 51.421875 40.328125 51.421875 26.65625 
z
M 42.1875 26.375 
Q 42.1875 31.84375 41.5 35.75 
Q 40.828125 39.65625 39.3125 42.15625 
Q 37.796875 44.671875 35.453125 45.84375 
Q 33.109375 47.015625 29.734375 47.015625 
Q 26.265625 47.015625 23.609375 45.890625 
Q 20.953125 44.78125 19.171875 42.28125 
Q 17.390625 39.796875 16.453125 35.734375 
Q 15.53125 31.6875 15.53125 25.828125 
Q 15.53125 20.171875 16.453125 16.3125 
Q 17.390625 12.453125 19.171875 10.03125 
Q 20.953125 7.625 23.578125 6.5625 
Q 26.21875 5.515625 29.640625 5.515625 
Q 32.859375 5.515625 35.203125 6.640625 
Q 37.546875 7.765625 39.109375 10.25 
Q 40.671875 12.75 41.421875 16.71875 
Q 42.1875 20.703125 42.1875 26.375 
z
" id="LiberationSans-98"/>
      <path d="M 6.734375 0 
L 6.734375 72.46875 
L 15.53125 72.46875 
L 15.53125 0 
z
" id="LiberationSans-108"/>
     </defs>
     <g style="fill:#262626;" transform="translate(168.597344 409.607188)scale(0.13 -0.13)">
      <use xlink:href="#LiberationSans-76"/>
      <use x="55.615234" xlink:href="#LiberationSans-97"/>
      <use x="111.230469" xlink:href="#LiberationSans-98"/>
      <use x="166.845703" xlink:href="#LiberationSans-101"/>
      <use x="222.460938" xlink:href="#LiberationSans-108"/>
     </g>
    </g>
   </g>
   <g id="matplotlib.axis_2">
    <g id="ytick_1">
     <g id="line2d_3">
      <path clip-path="url(#pfef2ed0dc9)" d="M 45 345.335823 
L 324 345.335823 
" style="fill:none;stroke:#ffffff;stroke-linecap:round;"/>
     </g>
     <g id="line2d_4"/>
     <g id="text_4">
      <!-- 50 -->
      <defs>
       <path d="M 51.421875 22.40625 
Q 51.421875 17.234375 49.859375 12.9375 
Q 48.296875 8.640625 45.21875 5.53125 
Q 42.140625 2.4375 37.578125 0.71875 
Q 33.015625 -0.984375 27 -0.984375 
Q 21.578125 -0.984375 17.546875 0.28125 
Q 13.53125 1.5625 10.734375 3.78125 
Q 7.953125 6 6.3125 8.984375 
Q 4.6875 11.96875 4 15.375 
L 12.890625 16.40625 
Q 13.421875 14.453125 14.390625 12.625 
Q 15.375 10.796875 17.0625 9.34375 
Q 18.75 7.90625 21.21875 7.046875 
Q 23.6875 6.203125 27.203125 6.203125 
Q 30.609375 6.203125 33.390625 7.25 
Q 36.1875 8.296875 38.15625 10.34375 
Q 40.140625 12.40625 41.203125 15.375 
Q 42.28125 18.359375 42.28125 22.21875 
Q 42.28125 25.390625 41.25 28.046875 
Q 40.234375 30.71875 38.328125 32.640625 
Q 36.421875 34.578125 33.65625 35.640625 
Q 30.90625 36.71875 27.390625 36.71875 
Q 25.203125 36.71875 23.34375 36.328125 
Q 21.484375 35.9375 19.890625 35.25 
Q 18.3125 34.578125 17.015625 33.671875 
Q 15.71875 32.765625 14.59375 31.78125 
L 6 31.78125 
L 8.296875 68.796875 
L 47.40625 68.796875 
L 47.40625 61.328125 
L 16.3125 61.328125 
L 14.984375 39.5 
Q 17.328125 41.3125 20.84375 42.59375 
Q 24.359375 43.890625 29.203125 43.890625 
Q 34.328125 43.890625 38.421875 42.328125 
Q 42.53125 40.765625 45.40625 37.90625 
Q 48.296875 35.0625 49.859375 31.109375 
Q 51.421875 27.15625 51.421875 22.40625 
z
" id="LiberationSans-53"/>
       <path d="M 51.703125 34.421875 
Q 51.703125 24.515625 49.828125 17.75 
Q 47.953125 10.984375 44.703125 6.8125 
Q 41.453125 2.640625 37.0625 0.828125 
Q 32.671875 -0.984375 27.6875 -0.984375 
Q 22.65625 -0.984375 18.3125 0.828125 
Q 13.96875 2.640625 10.765625 6.78125 
Q 7.5625 10.9375 5.734375 17.703125 
Q 3.90625 24.46875 3.90625 34.421875 
Q 3.90625 44.828125 5.734375 51.640625 
Q 7.5625 58.453125 10.78125 62.5 
Q 14.015625 66.546875 18.40625 68.1875 
Q 22.796875 69.828125 27.984375 69.828125 
Q 32.90625 69.828125 37.21875 68.1875 
Q 41.546875 66.546875 44.765625 62.5 
Q 48 58.453125 49.84375 51.640625 
Q 51.703125 44.828125 51.703125 34.421875 
z
M 42.78125 34.421875 
Q 42.78125 42.625 41.796875 48.0625 
Q 40.828125 53.515625 38.921875 56.765625 
Q 37.015625 60.015625 34.25 61.359375 
Q 31.5 62.703125 27.984375 62.703125 
Q 24.265625 62.703125 21.4375 61.328125 
Q 18.609375 59.96875 16.671875 56.71875 
Q 14.75 53.46875 13.765625 48.015625 
Q 12.796875 42.578125 12.796875 34.421875 
Q 12.796875 26.515625 13.796875 21.09375 
Q 14.796875 15.671875 16.71875 12.375 
Q 18.65625 9.078125 21.4375 7.640625 
Q 24.21875 6.203125 27.78125 6.203125 
Q 31.25 6.203125 34.03125 7.640625 
Q 36.8125 9.078125 38.734375 12.375 
Q 40.671875 15.671875 41.71875 21.09375 
Q 42.78125 26.515625 42.78125 34.421875 
z
" id="LiberationSans-48"/>
      </defs>
      <g style="fill:#262626;" transform="translate(24.65375 349.683948)scale(0.12 -0.12)">
       <use xlink:href="#LiberationSans-53"/>
       <use x="55.615234" xlink:href="#LiberationSans-48"/>
      </g>
     </g>
    </g>
    <g id="ytick_2">
     <g id="line2d_5">
      <path clip-path="url(#pfef2ed0dc9)" d="M 45 280.452329 
L 324 280.452329 
" style="fill:none;stroke:#ffffff;stroke-linecap:round;"/>
     </g>
     <g id="line2d_6"/>
     <g id="text_5">
      <!-- 100 -->
      <defs>
       <path d="M 7.625 0 
L 7.625 7.46875 
L 25.140625 7.46875 
L 25.140625 60.40625 
L 9.625 49.3125 
L 9.625 57.625 
L 25.875 68.796875 
L 33.984375 68.796875 
L 33.984375 7.46875 
L 50.734375 7.46875 
L 50.734375 0 
z
" id="LiberationSans-49"/>
      </defs>
      <g style="fill:#262626;" transform="translate(17.980625 284.800454)scale(0.12 -0.12)">
       <use xlink:href="#LiberationSans-49"/>
       <use x="55.615234" xlink:href="#LiberationSans-48"/>
       <use x="111.230469" xlink:href="#LiberationSans-48"/>
      </g>
     </g>
    </g>
    <g id="ytick_3">
     <g id="line2d_7">
      <path clip-path="url(#pfef2ed0dc9)" d="M 45 215.568835 
L 324 215.568835 
" style="fill:none;stroke:#ffffff;stroke-linecap:round;"/>
     </g>
     <g id="line2d_8"/>
     <g id="text_6">
      <!-- 150 -->
      <g style="fill:#262626;" transform="translate(17.980625 219.91696)scale(0.12 -0.12)">
       <use xlink:href="#LiberationSans-49"/>
       <use x="55.615234" xlink:href="#LiberationSans-53"/>
       <use x="111.230469" xlink:href="#LiberationSans-48"/>
      </g>
     </g>
    </g>
    <g id="ytick_4">
     <g id="line2d_9">
      <path clip-path="url(#pfef2ed0dc9)" d="M 45 150.685341 
L 324 150.685341 
" style="fill:none;stroke:#ffffff;stroke-linecap:round;"/>
     </g>
     <g id="line2d_10"/>
     <g id="text_7">
      <!-- 200 -->
      <defs>
       <path d="M 5.03125 0 
L 5.03125 6.203125 
Q 7.515625 11.921875 11.109375 16.28125 
Q 14.703125 20.65625 18.65625 24.1875 
Q 22.609375 27.734375 26.484375 30.765625 
Q 30.375 33.796875 33.5 36.8125 
Q 36.625 39.84375 38.546875 43.15625 
Q 40.484375 46.484375 40.484375 50.6875 
Q 40.484375 53.609375 39.59375 55.828125 
Q 38.71875 58.0625 37.0625 59.5625 
Q 35.40625 61.078125 33.078125 61.828125 
Q 30.765625 62.59375 27.9375 62.59375 
Q 25.296875 62.59375 22.96875 61.859375 
Q 20.65625 61.140625 18.84375 59.671875 
Q 17.046875 58.203125 15.890625 56.03125 
Q 14.75 53.859375 14.40625 50.984375 
L 5.421875 51.8125 
Q 5.859375 55.515625 7.46875 58.78125 
Q 9.078125 62.0625 11.90625 64.53125 
Q 14.75 67 18.71875 68.40625 
Q 22.703125 69.828125 27.9375 69.828125 
Q 33.0625 69.828125 37.0625 68.609375 
Q 41.0625 67.390625 43.8125 64.984375 
Q 46.578125 62.59375 48.046875 59.078125 
Q 49.515625 55.5625 49.515625 50.984375 
Q 49.515625 47.515625 48.265625 44.390625 
Q 47.015625 41.265625 44.9375 38.421875 
Q 42.875 35.59375 40.140625 32.953125 
Q 37.40625 30.328125 34.421875 27.8125 
Q 31.453125 25.296875 28.421875 22.828125 
Q 25.390625 20.359375 22.71875 17.859375 
Q 20.0625 15.375 17.96875 12.8125 
Q 15.875 10.25 14.703125 7.46875 
L 50.59375 7.46875 
L 50.59375 0 
z
" id="LiberationSans-50"/>
      </defs>
      <g style="fill:#262626;" transform="translate(17.980625 155.033466)scale(0.12 -0.12)">
       <use xlink:href="#LiberationSans-50"/>
       <use x="55.615234" xlink:href="#LiberationSans-48"/>
       <use x="111.230469" xlink:href="#LiberationSans-48"/>
      </g>
     </g>
    </g>
    <g id="ytick_5">
     <g id="line2d_11">
      <path clip-path="url(#pfef2ed0dc9)" d="M 45 85.801847 
L 324 85.801847 
" style="fill:none;stroke:#ffffff;stroke-linecap:round;"/>
     </g>
     <g id="line2d_12"/>
     <g id="text_8">
      <!-- 250 -->
      <g style="fill:#262626;" transform="translate(17.980625 90.149972)scale(0.12 -0.12)">
       <use xlink:href="#LiberationSans-50"/>
       <use x="55.615234" xlink:href="#LiberationSans-53"/>
       <use x="111.230469" xlink:href="#LiberationSans-48"/>
      </g>
     </g>
    </g>
    <g id="text_9">
     <!-- Word Count -->
     <defs>
      <path d="M 73.78125 0 
L 62.640625 0 
L 50.734375 43.703125 
Q 50.203125 45.5625 49.578125 48.09375 
Q 48.96875 50.640625 48.484375 52.9375 
Q 47.90625 55.609375 47.3125 58.40625 
Q 46.6875 55.5625 46.09375 52.875 
Q 45.5625 50.53125 44.96875 48.046875 
Q 44.390625 45.5625 43.84375 43.703125 
L 31.84375 0 
L 20.703125 0 
L 0.4375 68.796875 
L 10.15625 68.796875 
L 22.515625 25.09375 
Q 23.34375 22.015625 24.09375 18.984375 
Q 24.859375 15.96875 25.390625 13.578125 
Q 26.03125 10.75 26.5625 8.203125 
Q 27.296875 11.578125 28.078125 14.84375 
Q 28.421875 16.21875 28.765625 17.71875 
Q 29.109375 19.234375 29.46875 20.703125 
Q 29.828125 22.171875 30.1875 23.515625 
Q 30.5625 24.859375 30.859375 25.984375 
L 42.828125 68.796875 
L 51.765625 68.796875 
L 63.71875 25.984375 
Q 64.015625 24.859375 64.375 23.515625 
Q 64.75 22.171875 65.109375 20.71875 
Q 65.484375 19.28125 65.8125 17.765625 
Q 66.15625 16.265625 66.5 14.890625 
Q 67.28125 11.625 68.015625 8.203125 
Q 68.0625 8.203125 68.453125 9.890625 
Q 68.84375 11.578125 69.421875 14.109375 
Q 70.015625 16.65625 70.71875 19.609375 
Q 71.4375 22.5625 72.171875 25.09375 
L 84.328125 68.796875 
L 94.046875 68.796875 
z
" id="LiberationSans-87"/>
      <path d="M 40.09375 8.5 
Q 37.640625 3.421875 33.609375 1.21875 
Q 29.59375 -0.984375 23.640625 -0.984375 
Q 13.625 -0.984375 8.90625 5.75 
Q 4.203125 12.5 4.203125 26.171875 
Q 4.203125 53.8125 23.640625 53.8125 
Q 29.640625 53.8125 33.640625 51.609375 
Q 37.640625 49.421875 40.09375 44.625 
L 40.1875 44.625 
Q 40.1875 45.125 40.15625 46.171875 
Q 40.140625 47.21875 40.109375 48.359375 
Q 40.09375 49.515625 40.09375 50.53125 
Q 40.09375 51.5625 40.09375 52 
L 40.09375 72.46875 
L 48.875 72.46875 
L 48.875 10.890625 
Q 48.875 8.984375 48.890625 7.21875 
Q 48.921875 5.46875 48.96875 4 
Q 49.03125 2.546875 49.078125 1.484375 
Q 49.125 0.4375 49.171875 0 
L 40.765625 0 
Q 40.671875 0.484375 40.59375 1.390625 
Q 40.53125 2.296875 40.453125 3.46875 
Q 40.375 4.640625 40.328125 5.9375 
Q 40.28125 7.234375 40.28125 8.5 
z
M 13.421875 26.46875 
Q 13.421875 21 14.109375 17.09375 
Q 14.796875 13.1875 16.3125 10.671875 
Q 17.828125 8.15625 20.171875 6.984375 
Q 22.515625 5.8125 25.875 5.8125 
Q 29.34375 5.8125 32 6.9375 
Q 34.671875 8.0625 36.453125 10.578125 
Q 38.234375 13.09375 39.15625 17.140625 
Q 40.09375 21.1875 40.09375 27.046875 
Q 40.09375 32.671875 39.15625 36.546875 
Q 38.234375 40.4375 36.421875 42.828125 
Q 34.625 45.21875 32 46.265625 
Q 29.390625 47.3125 25.984375 47.3125 
Q 22.75 47.3125 20.40625 46.1875 
Q 18.0625 45.0625 16.5 42.578125 
Q 14.9375 40.09375 14.171875 36.109375 
Q 13.421875 32.125 13.421875 26.46875 
z
" id="LiberationSans-100"/>
      <path id="LiberationSans-32"/>
      <path d="M 38.671875 62.203125 
Q 32.8125 62.203125 28.296875 60.25 
Q 23.78125 58.296875 20.71875 54.6875 
Q 17.671875 51.078125 16.109375 46 
Q 14.546875 40.921875 14.546875 34.71875 
Q 14.546875 28.515625 16.234375 23.359375 
Q 17.921875 18.21875 21.0625 14.5 
Q 24.21875 10.796875 28.78125 8.734375 
Q 33.34375 6.6875 39.0625 6.6875 
Q 43.0625 6.6875 46.359375 7.734375 
Q 49.65625 8.796875 52.3125 10.6875 
Q 54.984375 12.59375 57.078125 15.203125 
Q 59.1875 17.828125 60.796875 21 
L 68.40625 17.1875 
Q 66.546875 13.328125 63.8125 10 
Q 61.078125 6.6875 57.390625 4.25 
Q 53.71875 1.8125 49.046875 0.40625 
Q 44.390625 -0.984375 38.625 -0.984375 
Q 30.28125 -0.984375 24 1.671875 
Q 17.71875 4.34375 13.5 9.109375 
Q 9.28125 13.875 7.171875 20.40625 
Q 5.078125 26.953125 5.078125 34.71875 
Q 5.078125 42.78125 7.296875 49.265625 
Q 9.515625 55.765625 13.78125 60.328125 
Q 18.0625 64.890625 24.3125 67.359375 
Q 30.5625 69.828125 38.578125 69.828125 
Q 49.5625 69.828125 56.9375 65.53125 
Q 64.3125 61.234375 67.78125 52.78125 
L 58.9375 49.859375 
Q 57.953125 52.296875 56.296875 54.515625 
Q 54.640625 56.734375 52.140625 58.4375 
Q 49.65625 60.15625 46.3125 61.171875 
Q 42.96875 62.203125 38.671875 62.203125 
z
" id="LiberationSans-67"/>
      <path d="M 15.328125 52.828125 
L 15.328125 19.34375 
Q 15.328125 15.484375 15.890625 12.890625 
Q 16.453125 10.296875 17.71875 8.703125 
Q 19 7.125 21.0625 6.46875 
Q 23.140625 5.8125 26.21875 5.8125 
Q 29.34375 5.8125 31.859375 6.90625 
Q 34.375 8.015625 36.15625 10.078125 
Q 37.9375 12.15625 38.90625 15.203125 
Q 39.890625 18.265625 39.890625 22.21875 
L 39.890625 52.828125 
L 48.6875 52.828125 
L 48.6875 11.28125 
Q 48.6875 9.625 48.703125 7.78125 
Q 48.734375 5.953125 48.78125 4.3125 
Q 48.828125 2.6875 48.875 1.515625 
Q 48.921875 0.34375 48.96875 0 
L 40.671875 0 
Q 40.625 0.25 40.578125 1.3125 
Q 40.53125 2.390625 40.453125 3.78125 
Q 40.375 5.171875 40.328125 6.609375 
Q 40.28125 8.0625 40.28125 9.03125 
L 40.140625 9.03125 
Q 38.875 6.734375 37.359375 4.875 
Q 35.84375 3.03125 33.84375 1.734375 
Q 31.84375 0.4375 29.25 -0.265625 
Q 26.65625 -0.984375 23.25 -0.984375 
Q 18.84375 -0.984375 15.671875 0.09375 
Q 12.5 1.171875 10.453125 3.421875 
Q 8.40625 5.671875 7.453125 9.1875 
Q 6.5 12.703125 6.5 17.625 
L 6.5 52.828125 
z
" id="LiberationSans-117"/>
      <path d="M 40.28125 0 
L 40.28125 33.5 
Q 40.28125 37.359375 39.71875 39.9375 
Q 39.15625 42.53125 37.890625 44.109375 
Q 36.625 45.703125 34.546875 46.359375 
Q 32.46875 47.015625 29.390625 47.015625 
Q 26.265625 47.015625 23.75 45.921875 
Q 21.234375 44.828125 19.453125 42.75 
Q 17.671875 40.671875 16.6875 37.625 
Q 15.71875 34.578125 15.71875 30.609375 
L 15.71875 0 
L 6.9375 0 
L 6.9375 41.546875 
Q 6.9375 43.21875 6.90625 45.046875 
Q 6.890625 46.875 6.828125 48.5 
Q 6.78125 50.140625 6.734375 51.3125 
Q 6.6875 52.484375 6.640625 52.828125 
L 14.9375 52.828125 
Q 14.984375 52.59375 15.03125 51.515625 
Q 15.09375 50.4375 15.15625 49.046875 
Q 15.234375 47.65625 15.28125 46.21875 
Q 15.328125 44.78125 15.328125 43.796875 
L 15.484375 43.796875 
Q 16.75 46.09375 18.265625 47.953125 
Q 19.78125 49.8125 21.78125 51.09375 
Q 23.78125 52.390625 26.359375 53.09375 
Q 28.953125 53.8125 32.375 53.8125 
Q 36.765625 53.8125 39.9375 52.734375 
Q 43.109375 51.65625 45.15625 49.40625 
Q 47.21875 47.171875 48.171875 43.625 
Q 49.125 40.09375 49.125 35.203125 
L 49.125 0 
z
" id="LiberationSans-110"/>
      <path d="M 27.046875 0.390625 
Q 25.046875 -0.140625 22.96875 -0.453125 
Q 20.90625 -0.78125 18.171875 -0.78125 
Q 7.625 -0.78125 7.625 11.1875 
L 7.625 46.4375 
L 1.515625 46.4375 
L 1.515625 52.828125 
L 7.953125 52.828125 
L 10.546875 64.65625 
L 16.40625 64.65625 
L 16.40625 52.828125 
L 26.171875 52.828125 
L 26.171875 46.4375 
L 16.40625 46.4375 
L 16.40625 13.09375 
Q 16.40625 9.28125 17.640625 7.734375 
Q 18.890625 6.203125 21.96875 6.203125 
Q 23.25 6.203125 24.4375 6.390625 
Q 25.640625 6.59375 27.046875 6.890625 
z
" id="LiberationSans-116"/>
     </defs>
     <g style="fill:#262626;" transform="translate(11.283125 249.484766)rotate(-90)scale(0.13 -0.13)">
      <use xlink:href="#LiberationSans-87"/>
      <use x="92.634766" xlink:href="#LiberationSans-111"/>
      <use x="148.25" xlink:href="#LiberationSans-114"/>
      <use x="181.550781" xlink:href="#LiberationSans-100"/>
      <use x="237.166016" xlink:href="#LiberationSans-32"/>
      <use x="264.949219" xlink:href="#LiberationSans-67"/>
      <use x="337.166016" xlink:href="#LiberationSans-111"/>
      <use x="392.78125" xlink:href="#LiberationSans-117"/>
      <use x="448.396484" xlink:href="#LiberationSans-110"/>
      <use x="504.011719" xlink:href="#LiberationSans-116"/>
     </g>
    </g>
   </g>
   <g id="PolyCollection_1">
    <defs>
     <path d="M 115.676382 -113.585564 
L 113.823618 -113.585564 
L 113.603693 -116.004056 
L 113.345753 -118.422547 
L 113.046902 -120.841038 
L 112.704897 -123.259529 
L 112.318356 -125.67802 
L 111.886949 -128.096511 
L 111.411556 -130.515002 
L 110.894383 -132.933493 
L 110.339014 -135.351984 
L 109.750385 -137.770475 
L 109.134671 -140.188966 
L 108.499086 -142.607458 
L 107.8516 -145.025949 
L 107.20058 -147.44444 
L 106.55438 -149.862931 
L 105.920904 -152.281422 
L 105.307168 -154.699913 
L 104.718911 -157.118404 
L 104.160265 -159.536895 
L 103.633533 -161.955386 
L 103.139092 -164.373877 
L 102.675426 -166.792368 
L 102.239301 -169.21086 
L 101.826066 -171.629351 
L 101.430053 -174.047842 
L 101.045051 -176.466333 
L 100.6648 -178.884824 
L 100.283471 -181.303315 
L 99.896078 -183.721806 
L 99.498782 -186.140297 
L 99.089063 -188.558788 
L 98.665732 -190.977279 
L 98.228786 -193.395771 
L 97.779108 -195.814262 
L 97.318047 -198.232753 
L 96.846915 -200.651244 
L 96.366443 -203.069735 
L 95.876254 -205.488226 
L 95.374399 -207.906717 
L 94.857018 -210.325208 
L 94.318143 -212.743699 
L 93.74969 -215.16219 
L 93.14163 -217.580681 
L 92.482358 -219.999173 
L 91.759216 -222.417664 
L 90.959161 -224.836155 
L 90.069516 -227.254646 
L 89.078769 -229.673137 
L 87.977362 -232.091628 
L 86.758431 -234.510119 
L 85.418445 -236.92861 
L 83.957715 -239.347101 
L 82.380755 -241.765592 
L 80.696478 -244.184083 
L 78.918218 -246.602575 
L 77.063604 -249.021066 
L 75.154285 -251.439557 
L 73.215526 -253.858048 
L 71.27571 -256.276539 
L 69.365742 -258.69503 
L 67.518394 -261.113521 
L 65.767598 -263.532012 
L 64.14769 -265.950503 
L 62.692633 -268.368994 
L 61.435204 -270.787485 
L 60.406178 -273.205977 
L 59.6335 -275.624468 
L 59.141477 -278.042959 
L 58.95 -280.46145 
L 59.073834 -282.879941 
L 59.521995 -285.298432 
L 60.297264 -287.716923 
L 61.395853 -290.135414 
L 62.80728 -292.553905 
L 64.514446 -294.972396 
L 66.493958 -297.390888 
L 68.716683 -299.809379 
L 71.148527 -302.22787 
L 73.751411 -304.646361 
L 76.48441 -307.064852 
L 79.304994 -309.483343 
L 82.170328 -311.901834 
L 85.038552 -314.320325 
L 87.869992 -316.738816 
L 90.62824 -319.157307 
L 93.281057 -321.575798 
L 95.801059 -323.99429 
L 98.166174 -326.412781 
L 100.359851 -328.831272 
L 102.371044 -331.249763 
L 104.193972 -333.668254 
L 105.827708 -336.086745 
L 107.275619 -338.505236 
L 108.544706 -340.923727 
L 109.644891 -343.342218 
L 110.58829 -345.760709 
L 111.388498 -348.1792 
L 112.059943 -350.597692 
L 112.617302 -353.016183 
L 116.882698 -353.016183 
L 116.882698 -353.016183 
L 117.440057 -350.597692 
L 118.111502 -348.1792 
L 118.91171 -345.760709 
L 119.855109 -343.342218 
L 120.955294 -340.923727 
L 122.224381 -338.505236 
L 123.672292 -336.086745 
L 125.306028 -333.668254 
L 127.128956 -331.249763 
L 129.140149 -328.831272 
L 131.333826 -326.412781 
L 133.698941 -323.99429 
L 136.218943 -321.575798 
L 138.87176 -319.157307 
L 141.630008 -316.738816 
L 144.461448 -314.320325 
L 147.329672 -311.901834 
L 150.195006 -309.483343 
L 153.01559 -307.064852 
L 155.748589 -304.646361 
L 158.351473 -302.22787 
L 160.783317 -299.809379 
L 163.006042 -297.390888 
L 164.985554 -294.972396 
L 166.69272 -292.553905 
L 168.104147 -290.135414 
L 169.202736 -287.716923 
L 169.978005 -285.298432 
L 170.426166 -282.879941 
L 170.55 -280.46145 
L 170.358523 -278.042959 
L 169.8665 -275.624468 
L 169.093822 -273.205977 
L 168.064796 -270.787485 
L 166.807367 -268.368994 
L 165.35231 -265.950503 
L 163.732402 -263.532012 
L 161.981606 -261.113521 
L 160.134258 -258.69503 
L 158.22429 -256.276539 
L 156.284474 -253.858048 
L 154.345715 -251.439557 
L 152.436396 -249.021066 
L 150.581782 -246.602575 
L 148.803522 -244.184083 
L 147.119245 -241.765592 
L 145.542285 -239.347101 
L 144.081555 -236.92861 
L 142.741569 -234.510119 
L 141.522638 -232.091628 
L 140.421231 -229.673137 
L 139.430484 -227.254646 
L 138.540839 -224.836155 
L 137.740784 -222.417664 
L 137.017642 -219.999173 
L 136.35837 -217.580681 
L 135.75031 -215.16219 
L 135.181857 -212.743699 
L 134.642982 -210.325208 
L 134.125601 -207.906717 
L 133.623746 -205.488226 
L 133.133557 -203.069735 
L 132.653085 -200.651244 
L 132.181953 -198.232753 
L 131.720892 -195.814262 
L 131.271214 -193.395771 
L 130.834268 -190.977279 
L 130.410937 -188.558788 
L 130.001218 -186.140297 
L 129.603922 -183.721806 
L 129.216529 -181.303315 
L 128.8352 -178.884824 
L 128.454949 -176.466333 
L 128.069947 -174.047842 
L 127.673934 -171.629351 
L 127.260699 -169.21086 
L 126.824574 -166.792368 
L 126.360908 -164.373877 
L 125.866467 -161.955386 
L 125.339735 -159.536895 
L 124.781089 -157.118404 
L 124.192832 -154.699913 
L 123.579096 -152.281422 
L 122.94562 -149.862931 
L 122.29942 -147.44444 
L 121.6484 -145.025949 
L 121.000914 -142.607458 
L 120.365329 -140.188966 
L 119.749615 -137.770475 
L 119.160986 -135.351984 
L 118.605617 -132.933493 
L 118.088444 -130.515002 
L 117.613051 -128.096511 
L 117.181644 -125.67802 
L 116.795103 -123.259529 
L 116.453098 -120.841038 
L 116.154247 -118.422547 
L 115.896307 -116.004056 
L 115.676382 -113.585564 
z
" id="m134881c286" style="stroke:#4c4c4c;stroke-width:3;"/>
    </defs>
    <g clip-path="url(#pfef2ed0dc9)">
     <use style="fill:#5875a4;stroke:#4c4c4c;stroke-width:3;" x="0" xlink:href="#m134881c286" y="432"/>
    </g>
   </g>
   <g id="PolyCollection_2">
    <defs>
     <path d="M 254.867462 -68.825455 
L 253.632538 -68.825455 
L 253.482198 -71.820496 
L 253.305447 -74.815537 
L 253.100294 -77.810579 
L 252.865214 -80.80562 
L 252.599296 -83.800661 
L 252.302358 -86.795702 
L 251.975059 -89.790744 
L 251.618964 -92.785785 
L 251.236573 -95.780826 
L 250.831304 -98.775868 
L 250.407423 -101.770909 
L 249.969927 -104.76595 
L 249.524386 -107.760992 
L 249.076744 -110.756033 
L 248.633103 -113.751074 
L 248.1995 -116.746116 
L 247.78168 -119.741157 
L 247.384903 -122.736198 
L 247.01377 -125.73124 
L 246.672095 -128.726281 
L 246.362817 -131.721322 
L 246.087958 -134.716364 
L 245.848617 -137.711405 
L 245.644992 -140.706446 
L 245.47642 -143.701488 
L 245.341422 -146.696529 
L 245.237736 -149.69157 
L 245.162325 -152.686612 
L 245.111361 -155.681653 
L 245.080164 -158.676694 
L 245.06311 -161.671736 
L 245.053506 -164.666777 
L 245.043453 -167.661818 
L 245.023705 -170.65686 
L 244.983565 -173.651901 
L 244.910819 -176.646942 
L 244.791769 -179.641983 
L 244.611364 -182.637025 
L 244.353464 -185.632066 
L 244.001246 -188.627107 
L 243.537758 -191.622149 
L 242.946597 -194.61719 
L 242.212703 -197.612231 
L 241.323213 -200.607273 
L 240.268328 -203.602314 
L 239.042133 -206.597355 
L 237.643301 -209.592397 
L 236.075622 -212.587438 
L 234.348292 -215.582479 
L 232.475942 -218.577521 
L 230.478361 -221.572562 
L 228.379943 -224.567603 
L 226.20887 -227.562645 
L 223.996088 -230.557686 
L 221.774163 -233.552727 
L 219.576083 -236.547769 
L 217.434115 -239.54281 
L 215.378799 -242.537851 
L 213.438154 -245.532893 
L 211.637148 -248.527934 
L 209.997444 -251.522975 
L 208.537438 -254.518017 
L 207.272514 -257.513058 
L 206.215485 -260.508099 
L 205.377096 -263.50314 
L 204.766531 -266.498182 
L 204.391809 -269.493223 
L 204.259997 -272.488264 
L 204.377205 -275.483306 
L 204.748324 -278.478347 
L 205.37654 -281.473388 
L 206.262668 -284.46843 
L 207.404386 -287.463471 
L 208.795465 -290.458512 
L 210.425103 -293.453554 
L 212.277453 -296.448595 
L 214.331433 -299.443636 
L 216.560858 -302.438678 
L 218.934931 -305.433719 
L 221.419058 -308.42876 
L 223.975945 -311.423802 
L 226.566904 -314.418843 
L 229.153267 -317.413884 
L 231.697806 -320.408926 
L 234.166059 -323.403967 
L 236.52748 -326.399008 
L 238.756329 -329.39405 
L 240.832275 -332.389091 
L 242.74069 -335.384132 
L 244.472635 -338.379174 
L 246.024576 -341.374215 
L 247.397872 -344.369256 
L 248.598105 -347.364298 
L 249.634286 -350.359339 
L 250.518035 -353.35438 
L 251.262757 -356.349421 
L 251.88288 -359.344463 
L 252.393174 -362.339504 
L 252.808186 -365.334545 
L 255.691814 -365.334545 
L 255.691814 -365.334545 
L 256.106826 -362.339504 
L 256.61712 -359.344463 
L 257.237243 -356.349421 
L 257.981965 -353.35438 
L 258.865714 -350.359339 
L 259.901895 -347.364298 
L 261.102128 -344.369256 
L 262.475424 -341.374215 
L 264.027365 -338.379174 
L 265.75931 -335.384132 
L 267.667725 -332.389091 
L 269.743671 -329.39405 
L 271.97252 -326.399008 
L 274.333941 -323.403967 
L 276.802194 -320.408926 
L 279.346733 -317.413884 
L 281.933096 -314.418843 
L 284.524055 -311.423802 
L 287.080942 -308.42876 
L 289.565069 -305.433719 
L 291.939142 -302.438678 
L 294.168567 -299.443636 
L 296.222547 -296.448595 
L 298.074897 -293.453554 
L 299.704535 -290.458512 
L 301.095614 -287.463471 
L 302.237332 -284.46843 
L 303.12346 -281.473388 
L 303.751676 -278.478347 
L 304.122795 -275.483306 
L 304.240003 -272.488264 
L 304.108191 -269.493223 
L 303.733469 -266.498182 
L 303.122904 -263.50314 
L 302.284515 -260.508099 
L 301.227486 -257.513058 
L 299.962562 -254.518017 
L 298.502556 -251.522975 
L 296.862852 -248.527934 
L 295.061846 -245.532893 
L 293.121201 -242.537851 
L 291.065885 -239.54281 
L 288.923917 -236.547769 
L 286.725837 -233.552727 
L 284.503912 -230.557686 
L 282.29113 -227.562645 
L 280.120057 -224.567603 
L 278.021639 -221.572562 
L 276.024058 -218.577521 
L 274.151708 -215.582479 
L 272.424378 -212.587438 
L 270.856699 -209.592397 
L 269.457867 -206.597355 
L 268.231672 -203.602314 
L 267.176787 -200.607273 
L 266.287297 -197.612231 
L 265.553403 -194.61719 
L 264.962242 -191.622149 
L 264.498754 -188.627107 
L 264.146536 -185.632066 
L 263.888636 -182.637025 
L 263.708231 -179.641983 
L 263.589181 -176.646942 
L 263.516435 -173.651901 
L 263.476295 -170.65686 
L 263.456547 -167.661818 
L 263.446494 -164.666777 
L 263.43689 -161.671736 
L 263.419836 -158.676694 
L 263.388639 -155.681653 
L 263.337675 -152.686612 
L 263.262264 -149.69157 
L 263.158578 -146.696529 
L 263.02358 -143.701488 
L 262.855008 -140.706446 
L 262.651383 -137.711405 
L 262.412042 -134.716364 
L 262.137183 -131.721322 
L 261.827905 -128.726281 
L 261.48623 -125.73124 
L 261.115097 -122.736198 
L 260.71832 -119.741157 
L 260.3005 -116.746116 
L 259.866897 -113.751074 
L 259.423256 -110.756033 
L 258.975614 -107.760992 
L 258.530073 -104.76595 
L 258.092577 -101.770909 
L 257.668696 -98.775868 
L 257.263427 -95.780826 
L 256.881036 -92.785785 
L 256.524941 -89.790744 
L 256.197642 -86.795702 
L 255.900704 -83.800661 
L 255.634786 -80.80562 
L 255.399706 -77.810579 
L 255.194553 -74.815537 
L 255.017802 -71.820496 
L 254.867462 -68.825455 
z
" id="m9faf08e48e" style="stroke:#4c4c4c;stroke-width:3;"/>
    </defs>
    <g clip-path="url(#pfef2ed0dc9)">
     <use style="fill:#5f9e6e;stroke:#4c4c4c;stroke-width:3;" x="0" xlink:href="#m9faf08e48e" y="432"/>
    </g>
   </g>
   <g id="line2d_13">
    <path clip-path="url(#pfef2ed0dc9)" d="M 114.75 271.36864 
L 114.75 126.029613 
" style="fill:none;stroke:#4c4c4c;stroke-linecap:round;stroke-width:3;"/>
   </g>
   <g id="line2d_14">
    <path clip-path="url(#pfef2ed0dc9)" d="M 114.75 196.103787 
L 114.75 145.494661 
" style="fill:none;stroke:#4c4c4c;stroke-linecap:round;stroke-width:9;"/>
   </g>
   <g id="line2d_15">
    <path clip-path="url(#pfef2ed0dc9)" d="M 254.25 246.712912 
L 254.25 122.136603 
" style="fill:none;stroke:#4c4c4c;stroke-linecap:round;stroke-width:3;"/>
   </g>
   <g id="line2d_16">
    <path clip-path="url(#pfef2ed0dc9)" d="M 254.25 189.615437 
L 254.25 140.952817 
" style="fill:none;stroke:#4c4c4c;stroke-linecap:round;stroke-width:9;"/>
   </g>
   <g id="patch_3">
    <path d="M 45 378 
L 45 51.84 
" style="fill:none;"/>
   </g>
   <g id="patch_4">
    <path d="M 324 378 
L 324 51.84 
" style="fill:none;"/>
   </g>
   <g id="patch_5">
    <path d="M 45 378 
L 324 378 
" style="fill:none;"/>
   </g>
   <g id="patch_6">
    <path d="M 45 51.84 
L 324 51.84 
" style="fill:none;"/>
   </g>
   <g id="PathCollection_1">
    <defs>
     <path d="M 0 3 
C 0.795609 3 1.55874 2.683901 2.12132 2.12132 
C 2.683901 1.55874 3 0.795609 3 0 
C 3 -0.795609 2.683901 -1.55874 2.12132 -2.12132 
C 1.55874 -2.683901 0.795609 -3 0 -3 
C -0.795609 -3 -1.55874 -2.683901 -2.12132 -2.12132 
C -2.683901 -1.55874 -3 -0.795609 -3 0 
C -3 0.795609 -2.683901 1.55874 -2.12132 2.12132 
C -1.55874 2.683901 -0.795609 3 0 3 
z
" id="m48313e8d90" style="stroke:#4c4c4c;stroke-width:0.3;"/>
    </defs>
    <g clip-path="url(#pfef2ed0dc9)">
     <use style="fill:#ffffff;stroke:#4c4c4c;stroke-width:0.3;" x="114.75" xlink:href="#m48313e8d90" y="164.959709"/>
    </g>
   </g>
   <g id="PathCollection_2">
    <g clip-path="url(#pfef2ed0dc9)">
     <use style="fill:#ffffff;stroke:#4c4c4c;stroke-width:0.3;" x="254.25" xlink:href="#m48313e8d90" y="172.745729"/>
    </g>
   </g>
  </g>
 </g>
 <defs>
  <clipPath id="pfef2ed0dc9">
   <rect height="326.16" width="279" x="45" y="51.84"/>
  </clipPath>
 </defs>
</svg>
